{
  "accessors": [
    {
      "bufferView": 2,
      "componentType": 5126,
      "count": 81,
      "max": [
        0.3790450394153595,
        1.2197054624557495,
        0.37904506921768188
      ],
      "min": [
        -0.37904506921768188,
        0.26241400837898254,
        -0.37904506921768188
      ],
      "type": "VEC3"
    },
    {
      "bufferView": 2,
      "byteOffset": 972,
      "componentType": 5126,
      "count": 81,
      "max": [
        1,
        1,
        1
      ],
      "min": [
        -1,
        -0.56791192293167114,
        -1
      ],
      "type": "VEC3"
    },
    {
      "bufferView": 1,
      "componentType": 5126,
      "count": 81,
      "max": [
        0.921875,
        1
      ],
      "min": [
        0.046875,
        0.640625
      ],
      "type": "VEC2"
    },
    {
      "bufferView": 0,
      "componentType": 5125,
      "count": 264,
      "max": [
        80
      ],
      "min": [
        0
      ],
      "type": "SCALAR"
    },
    {
      "bufferView": 2,
      "byteOffset": 1944,
      "componentType": 5126,
      "count": 73,
      "max": [
        1,
        0.41887637972831726,
        1
      ],
      "min": [
        -1,
        0,
        -1
      ],
      "type": "VEC3"
    },
    {
      "bufferView": 2,
      "byteOffset": 2820,
      "componentType": 5126,
      "count": 73,
      "max": [
        1,
        1,
        1
      ],
      "min": [
        -1,
        0,
        -1
      ],
      "type": "VEC3"
    },
    {
      "bufferView": 1,
      "byteOffset": 648,
      "componentType": 5126,
      "count": 73,
      "max": [
        0.765625,
        1
      ],
      "min": [
        -0,
        0.5
      ],
      "type": "VEC2"
    },
    {
      "bufferView": 0,
      "byteOffset": 1056,
      "componentType": 5125,
      "count": 168,
      "max": [
        72
      ],
      "min": [
        0
      ],
      "type": "SCALAR"
    },
    {
      "bufferView": 2,
      "byteOffset": 3696,
      "componentType": 5126,
      "count": 88,
      "max": [
        0.28988736867904663,
        1.6978722810745239,
        0.1679968535900116
      ],
      "min": [
        -0.17192044854164124,
        1.1446954011917114,
        -0.16799680888652802
      ],
      "type": "VEC3"
    },
    {
      "bufferView": 2,
      "byteOffset": 4752,
      "componentType": 5126,
      "count": 88,
      "max": [
        1,
        0.99710392951965332,
        1
      ],
      "min": [
        -1,
        -0.7900928258895874,
        -1
      ],
      "type": "VEC3"
    },
    {
      "bufferView": 1,
      "byteOffset": 1232,
      "componentType": 5126,
      "count": 88,
      "max": [
        0.21874998509883881,
        0.5
      ],
      "min": [
        0,
        0.265625
      ],
      "type": "VEC2"
    },
    {
      "bufferView": 0,
      "byteOffset": 1728,
      "componentType": 5125,
      "count": 348,
      "max": [
        87
      ],
      "min": [
        0
      ],
      "type": "SCALAR"
    },
    {
      "bufferView": 3,
      "componentType": 5126,
      "count": 144,
      "max": [
        6
      ],
      "min": [
        0.041666667908430099
      ],
      "type": "SCALAR"
    },
    {
      "bufferView": 5,
      "componentType": 5126,
      "count": 144,
      "max": [
        0,
        1,
        -0,
        1
      ],
      "min": [
        0,
        -0.99976211786270142,
        -0,
        -4.3711388286737929e-08
      ],
      "type": "VEC4"
    },
    {
      "bufferView": 3,
      "byteOffset": 576,
      "componentType": 5126,
      "count": 104,
      "max": [
        6
      ],
      "min": [
        0.041666667908430099
      ],
      "type": "SCALAR"
    },
    {
      "bufferView": 4,
      "componentType": 5126,
      "count": 104,
      "max": [
        2.7015326023101807,
        2.7015323638916016,
        2.7015326023101807
      ],
      "min": [
        2.7015321254730225,
        2.7015323638916016,
        2.7015321254730225
      ],
      "type": "VEC3"
    },
    {
      "bufferView": 3,
      "byteOffset": 992,
      "componentType": 5126,
      "count": 3,
      "max": [
        6
      ],
      "min": [
        0
      ],
      "type": "SCALAR"
    },
    {
      "bufferView": 5,
      "byteOffset": 2304,
      "componentType": 5126,
      "count": 3,
      "max": [
        1,
        1,
        -0,
        0
      ],
      "min": [
        0,
        0,
        -0,
        0
      ],
      "type": "VEC4"
    }
  ],
  "animations": [
    {
      "channels": [
        {
          "sampler": 0,
          "target": {
            "node": 4,
            "path": "rotation"
          }
        },
        {
          "sampler": 1,
          "target": {
            "node": 4,
            "path": "scale"
          }
        }
      ],
      "name": "Action",
      "samplers": [
        {
          "input": 12,
          "interpolation": "LINEAR",
          "output": 13
        },
        {
          "input": 14,
          "interpolation": "LINEAR",
          "output": 15
        }
      ]
    },
    {
      "channels": [
        {
          "sampler": 0,
          "target": {
            "node": 4,
            "path": "rotation"
          }
        }
      ],
      "name": "EmptyAction",
      "samplers": [
        {
          "input": 16,
          "interpolation": "LINEAR",
          "output": 17
        }
      ]
    }
  ],
  "asset": {
    "extras": {
      "author": "ManeMuniz (https://sketchfab.com/SpectralWolf)",
      "license": "CC-BY-4.0 (http://creativecommons.org/licenses/by/4.0/)",
      "source": "https://sketchfab.com/3d-models/pixel-art-fountain-24e8545c6fc04bf6a6d7b6197b4eba4f",
      "title": "Pixel Art Fountain"
    },
    "generator": "Sketchfab-7.81.0",
    "version": "2.0"
  },
  "bufferViews": [
    {
      "buffer": 0,
      "byteLength": 3120,
      "byteOffset": 0,
      "name": "floatBufferViews",
      "target": 34963
    },
    {
      "buffer": 0,
      "byteLength": 1936,
      "byteOffset": 3120,
      "byteStride": 8,
      "name": "floatBufferViews",
      "target": 34962
    },
    {
      "buffer": 0,
      "byteLength": 5808,
      "byteOffset": 5056,
      "byteStride": 12,
      "name": "floatBufferViews",
      "target": 34962
    },
    {
      "buffer": 0,
      "byteLength": 1004,
      "byteOffset": 10864,
      "name": "floatBufferViews"
    },
    {
      "buffer": 0,
      "byteLength": 1248,
      "byteOffset": 11868,
      "byteStride": 12,
      "name": "floatBufferViews"
    },
    {
      "buffer": 0,
      "byteLength": 2352,
      "byteOffset": 13116,
      "byteStride": 16,
      "name": "floatBufferViews"
    }
  ],
  "buffers": [
    {
      "byteLength": 15468,
      "uri": "scene.bin"
    }
  ],
  "images": [
    {
      "uri": "textures/Scene_-_Root_baseColor.png"
    }
  ],
  "materials": [
    {
      "doubleSided": true,
      "name": "Scene_-_Root",
      "pbrMetallicRoughness": {
        "baseColorFactor": [
          1,
          1,
          1,
          1
        ],
        "baseColorTexture": {
          "index": 0,
          "texCoord": 0
        },
        "metallicFactor": 0,
        "roughnessFactor": 0.59999999999999998
      }
    }
  ],
  "meshes": [
    {
      "primitives": [
        {
          "attributes": {
            "NORMAL": 1,
            "POSITION": 0,
            "TEXCOORD_0": 2
          },
          "indices": 3,
          "material": 0,
          "mode": 4
        }
      ]
    },
    {
      "primitives": [
        {
          "attributes": {
            "NORMAL": 5,
            "POSITION": 4,
            "TEXCOORD_0": 6
          },
          "indices": 7,
          "material": 0,
          "mode": 4
        }
      ]
    },
    {
      "primitives": [
        {
          "attributes": {
            "NORMAL": 9,
            "POSITION": 8,
            "TEXCOORD_0": 10
          },
          "indices": 11,
          "material": 0,
          "mode": 4
        }
      ]
    }
  ],
  "nodes": [
    {
      "children": [
        1
      ],
      "name": "RootNode (gltf orientation matrix)",
      "rotation": [
        -0.70710678118654746,
        -0,
        -0,
        0.70710678118654757
      ]
    },
    {
      "children": [
        2
      ],
      "name": "RootNode (model correction matrix)"
    },
    {
      "children": [
        3
      ],
      "name": "root"
    },
    {
      "children": [
        4
      ],
      "matrix": [
        1,
        0,
        0,
        0,
        0,
        2.2204460492503131e-16,
        1,
        0,
        0,
        -1,
        2.2204460492503131e-16,
        0,
        0,
        0,
        0,
        1
      ],
      "name": "GLTF_SceneRootNode"
    },
    {
      "children": [
        5,
        7,
        9
      ],
      "name": "Empty_4",
      "scale": [
        2.7015321254730225,
        2.7015323638916016,
        2.7015321254730225
      ]
    },
    {
      "children": [
        6
      ],
      "matrix": [
        0.370160311460495,
        0,
        0,
        0,
        0,
        0.370160311460495,
        0,
        0,
        0,
        0,
        0.370160311460495,
        0,
        0,
        0,
        0,
        1
      ],
      "name": "Fountain_1"
    },
    {
      "mesh": 0,
      "name": ""
    },
    {
      "children": [
        8
      ],
      "matrix": [
        0.34199339193565154,
        0,
        0.14163026486713323,
        0,
        -0,
        0.370160311460495,
        0,
        0,
        -0.14163026486713323,
        -0,
        0.34199339193565154,
        0,
        0,
        0,
        0,
        1
      ],
      "name": "Pool_2"
    },
    {
      "mesh": 1,
      "name": ""
    },
    {
      "children": [
        10
      ],
      "matrix": [
        0.370160311460495,
        0,
        0,
        0,
        0,
        0.370160311460495,
        0,
        0,
        0,
        0,
        0.370160311460495,
        0,
        0,
        0,
        0,
        1
      ],
      "name": "Statue_3"
    },
    {
      "mesh": 2,
      "name": ""
    }
  ],
  "samplers": [
    {
      "magFilter": 9728,
      "minFilter": 9986,
      "wrapS": 10497,
      "wrapT": 10497
    }
  ],
  "scene": 0,
  "scenes": [
    {
      "name": "OSG_Scene",
      "nodes": [
        0
      ]
    }
  ],
  "textures": [
    {
      "sampler": 0,
      "source": 0
    }
  ]
}

